
<svg version="1.1" id="Layer_1" xmlns="http://www.w3.org/2000/svg" xmlns:xlink="http://www.w3.org/1999/xlink" x="0px" y="0px"
	 viewBox="0 0 100 100" style="enable-background:new 0 0 425.2 425.2;" xml:space="preserve">
<style type="text/css">
    .st0{fill:#0F497F;}
</style>
<g><path class="st0" d="M79,77.17v0.01c-0.05-0.02-0.1-0.029-0.15-0.06C78.9,77.14,78.95,77.16,79,77.17z"/><g>
<ellipse class="st0" cx="51.755" cy="25.685" rx="9.911" ry="10.846"/>
<path class="st0" d="M69.38,46H32.95c3.93-5.23,11.24-8.42,18.22-8.42C58.14,37.58,65.45,40.77,69.38,46z"/>
<path class="st0" d="M81.53,75.04c-0.61,0.79-1.96,1.66-3.53,1.13c-0.05-0.01-0.1-0.03-0.15-0.05c-0.1-0.03-0.189-0.08-0.29-0.13
    c-0.3-0.141-0.6-0.34-0.899-0.601c-2.12-1.8-3.11-4.26-1.78-7c0.311-0.63,0.7-1.08,1.11-1.399c0.069-0.05,0.13-0.101,0.2-0.141
    c0.06-0.05,0.13-0.09,0.189-0.119c0.29-0.181,0.58-0.311,0.86-0.41c0.069-0.03,0.14-0.061,0.2-0.08
    c0.199-0.07,0.38-0.141,0.56-0.2c0.59-0.22,1.01-0.44,1-1.021v-4.38c0,0,3.24,2.801,3.86,6.95
    C83.49,71.74,82.31,74.03,81.53,75.04z"/>
<path class="st0" d="M25.68,75.39c-2.12,1.801-4.09,0.66-4.88-0.35c-0.78-1.01-2.115-3.3-1.495-7.45C19.935,63.44,23,60.64,23,60.64v4.38
    c0,1.49,2.965,0.631,4.295,3.37C28.625,71.13,27.79,73.59,25.68,75.39z"/></g>
<path class="st0" d="M77.475,65.1c0.209-0.08,0.48-0.17,0.619-0.25V46.9h-54V64.85c0,0.08,0.541,0.17,0.75,0.25
    c0.99,0.34,2.611,0.871,3.52,2.75c1.422,2.91,0.602,5.9-2.109,8.201c-0.629,0.539-1.16,0.898-2.16,1.068V85.9h54v-8.781
    c-0.689-0.17-1.359-0.529-1.99-1.068c-2.709-2.301-3.449-5.291-2.029-8.201C74.984,65.971,76.484,65.439,77.475,65.1z
    M60.146,59.625l2.223-1.285c0.301-0.174,0.686-0.07,0.859,0.23s0.07,0.686-0.23,0.859l-2.223,1.283
    c-0.1,0.059-0.207,0.084-0.314,0.084c-0.217,0-0.428-0.111-0.545-0.314C59.742,60.184,59.846,59.797,60.146,59.625z M55.992,55.93
    l1.283-2.223c0.174-0.301,0.561-0.404,0.859-0.23c0.301,0.174,0.404,0.559,0.23,0.859l-1.285,2.223
    c-0.115,0.201-0.326,0.314-0.545,0.314c-0.105,0-0.215-0.027-0.312-0.084C55.922,56.615,55.818,56.23,55.992,55.93z M50.547,52.24
    c0-0.348,0.281-0.629,0.629-0.629s0.629,0.281,0.629,0.629v2.568c0,0.346-0.281,0.627-0.629,0.627s-0.629-0.281-0.629-0.627V52.24z
    M44.217,53.477c0.301-0.174,0.686-0.072,0.859,0.229l1.285,2.225c0.172,0.301,0.07,0.686-0.23,0.859
    c-0.1,0.057-0.207,0.084-0.314,0.084c-0.217,0-0.428-0.113-0.545-0.314l-1.283-2.225C43.814,54.033,43.916,53.648,44.217,53.477z
    M37.258,65.529c0-0.348,0.283-0.629,0.629-0.629h2.568c0.348,0,0.629,0.281,0.629,0.629c0,0.346-0.281,0.627-0.629,0.627h-2.568
    C37.541,66.156,37.258,65.875,37.258,65.529z M42.207,71.434l-2.225,1.283c-0.1,0.057-0.207,0.084-0.314,0.084
    c-0.217,0-0.428-0.113-0.545-0.314c-0.174-0.301-0.07-0.686,0.23-0.859l2.225-1.283c0.299-0.174,0.684-0.07,0.857,0.23
    S42.508,71.26,42.207,71.434z M42.436,60.482c-0.115,0.201-0.326,0.314-0.545,0.314c-0.105,0-0.215-0.027-0.312-0.084l-2.225-1.285
    c-0.301-0.172-0.404-0.557-0.23-0.857s0.559-0.404,0.859-0.23l2.225,1.283C42.508,59.797,42.609,60.182,42.436,60.482z
    M54.146,81.355l-3.113,0.791c-0.051,0.014-0.104,0.02-0.154,0.02c-0.281,0-0.537-0.189-0.609-0.475
    c-0.086-0.336,0.119-0.678,0.455-0.764l3.111-0.791c0.336-0.084,0.68,0.117,0.764,0.455C54.686,80.928,54.482,81.27,54.146,81.355z
    M54.148,79.607l-5.541,1.438c-0.053,0.016-0.105,0.021-0.158,0.021c-0.279,0-0.535-0.188-0.607-0.471
    c-0.088-0.336,0.113-0.68,0.449-0.768l5.541-1.438c0.338-0.09,0.68,0.115,0.768,0.449C54.686,79.178,54.484,79.52,54.148,79.607z
    M54.148,77.814l-5.541,1.439c-0.053,0.014-0.105,0.02-0.158,0.02c-0.279,0-0.535-0.188-0.607-0.471
    c-0.088-0.336,0.113-0.678,0.449-0.766l5.541-1.439c0.338-0.088,0.68,0.115,0.768,0.451C54.686,77.385,54.484,77.729,54.148,77.814z
    M54.148,76.023l-5.541,1.439c-0.053,0.014-0.105,0.02-0.158,0.02c-0.279,0-0.535-0.188-0.607-0.471
    c-0.088-0.336,0.113-0.68,0.449-0.766l5.541-1.439c0.338-0.09,0.68,0.115,0.768,0.451C54.686,75.594,54.484,75.936,54.148,76.023z
    M56.4,70.656c-1.504,1.689-2.266,2.699-2.266,3.002c0,0.283-0.189,0.533-0.465,0.607c-4.842,1.311-5.004,1.324-5.109,1.324
    c-0.012-0.002-0.021-0.002-0.031-0.002c-0.59-0.027-0.74-0.58-0.9-1.168c-0.23-0.844-0.615-2.256-1.957-3.764
    c-2.32-2.609-3.002-6.316-1.697-9.223c1.168-2.602,3.742-4.092,7.062-4.092s5.895,1.49,7.062,4.092
    C59.404,64.34,58.721,68.047,56.4,70.656z M63.229,72.488c-0.117,0.201-0.328,0.314-0.545,0.314c-0.107,0-0.215-0.027-0.314-0.086
    l-2.223-1.283c-0.301-0.174-0.404-0.559-0.23-0.859s0.559-0.404,0.859-0.23l2.223,1.285C63.299,71.803,63.402,72.188,63.229,72.488z
    M64.465,66.158h-2.568c-0.348,0-0.629-0.281-0.629-0.629s0.281-0.629,0.629-0.629h2.568c0.348,0,0.629,0.281,0.629,0.629
    S64.812,66.158,64.465,66.158z"/></g>
</svg>