<?xml version="1.0" encoding="utf-8"?>
<!-- Generator: Adobe Illustrator 19.1.0, SVG Export Plug-In . SVG Version: 6.00 Build 0)  -->
<svg version="1.1" id="Layer_1" xmlns="http://www.w3.org/2000/svg" xmlns:xlink="http://www.w3.org/1999/xlink" x="0px" y="0px"
	 viewBox="0 0 425.2 425.2" style="enable-background:new 0 0 425.2 425.2;" xml:space="preserve">
<style type="text/css">
	.st0{fill:#0F497F;}
</style>
<path id="calendar_1_" class="st0" d="M331.6,96.5H293V78.7c0-4.9-4-8.9-8.9-8.9s-8.9,4-8.9,8.9v17.9h-53.6V78.7
	c0-4.9-4-8.9-8.9-8.9s-8.9,4-8.9,8.9v17.9h-53.6V78.7c0-4.9-4-8.9-8.9-8.9s-8.9,4-8.9,8.9v17.9H93.6c-13.2,0-23.8,10.7-23.8,23.8
	v211.3c0,13.2,10.7,23.8,23.8,23.8h238.1c13.2,0,23.8-10.7,23.8-23.8V120.3C355.4,107.2,344.8,96.5,331.6,96.5z M337.6,331.6
	c0,3.3-2.7,6-5.9,6H93.6c-3.3,0-6-2.7-6-6V120.3c0-3.3,2.7-5.9,6-5.9h38.7v17.9c0,4.9,4,8.9,8.9,8.9s8.9-4,8.9-8.9v-17.9h53.6v17.9
	c0,4.9,4,8.9,8.9,8.9s8.9-4,8.9-8.9v-17.9h53.6v17.9c0,4.9,4,8.9,8.9,8.9s8.9-4,8.9-8.9v-17.9h38.7c3.3,0,5.9,2.7,5.9,5.9V331.6z
	 M132.2,176.9H168v26.8h-35.7V176.9z M132.2,221.5H168v26.8h-35.7V221.5z M132.2,266.2H168V293h-35.7V266.2z M194.7,266.2h35.7V293
	h-35.7V266.2z M194.7,221.5h35.7v26.8h-35.7V221.5z M194.7,176.9h35.7v26.8h-35.7V176.9z M257.2,266.2H293V293h-35.7V266.2z
	 M257.2,221.5H293v26.8h-35.7V221.5z M257.2,176.9H293v26.8h-35.7V176.9z"/>
</svg>
