<?xml version="1.0" encoding="utf-8"?>
<!-- Generator: Adobe Illustrator 19.1.0, SVG Export Plug-In . SVG Version: 6.00 Build 0)  -->
<svg version="1.1" id="Layer_1" xmlns="http://www.w3.org/2000/svg" xmlns:xlink="http://www.w3.org/1999/xlink" x="0px" y="0px"
	 viewBox="0 0 425.2 425.2" style="enable-background:new 0 0 425.2 425.2;" xml:space="preserve">
<style type="text/css">
	.st0{fill:#0F497F;}
</style>
<path class="st0" d="M209.8,181.5c0-1.6,1.3-2.8,2.8-2.8h66.6c1.5,0,2.8,1.3,2.8,2.8v1.8c0,1.6-1.3,2.8-2.8,2.8h-66.6
	c-1.6,0-2.8-1.3-2.8-2.8V181.5z M212.6,164.9h66.6c1.5,0,2.8-1.3,2.8-2.8v-1.8c0-1.5-1.3-2.8-2.8-2.8h-66.6c-1.6,0-2.8,1.3-2.8,2.8
	v1.8C209.8,163.6,211,164.9,212.6,164.9z M300.7,81.1h-37.1c0,0.2,0,0.5,0,0.7v20.4h30c3.9,0,7,3.2,7,7v180.3L244.3,346H131.6
	c-3.9,0-7-3.2-7-7V109.3c0-3.9,3.2-7,7-7h30V81.8c0-0.2,0-0.5,0-0.7h-37.1c-11.6,0-21.1,9.5-21.1,21.1V346
	c0,11.6,9.5,21.1,21.1,21.1h176.1c11.6,0,21.1-9.5,21.1-21.1V102.3C321.8,90.6,312.3,81.1,300.7,81.1z M144,203.8
	c0,1.5,1.3,2.8,2.8,2.8h132.3c1.5,0,2.8-1.3,2.8-2.8V202c0-1.5-1.3-2.8-2.8-2.8H146.9c-1.6,0-2.8,1.3-2.8,2.8L144,203.8L144,203.8z
	 M146.9,186.1H191c1.6,0,2.8-1.3,2.8-2.8v-44.1c0-1.6-1.3-2.8-2.8-2.8h-44.1c-1.6,0-2.8,1.3-2.8,2.8v44.1
	C144,184.8,145.3,186.1,146.9,186.1z M251.4,289.6c-1.8,0-3.6,0.7-5,2.1s-2.1,3.2-2.1,5V336l46.4-46.4H251.4L251.4,289.6z M144,225
	c0,1.6,1.3,2.8,2.8,2.8h132.3c1.5,0,2.8-1.3,2.8-2.8v-1.8c0-1.6-1.3-2.8-2.8-2.8H146.9c-1.6,0-2.8,1.3-2.8,2.8L144,225L144,225z
	 M279.2,136.3h-66.6c-1.6,0-2.8,1.3-2.8,2.8v1.8c0,1.6,1.3,2.8,2.8,2.8h66.6c1.5,0,2.8-1.3,2.8-2.8v-1.8
	C282,137.6,280.7,136.3,279.2,136.3z M144,246.2c0,1.6,1.3,2.8,2.8,2.8h132.3c1.5,0,2.8-1.3,2.8-2.8v-1.8c0-1.6-1.3-2.8-2.8-2.8
	H146.9c-1.6,0-2.8,1.3-2.8,2.8L144,246.2L144,246.2z M144,267.3c0,1.6,1.3,2.8,2.8,2.8h63.3c1.6,0,2.8-1.3,2.8-2.8v-1.8
	c0-1.5-1.3-2.8-2.8-2.8h-63.3c-1.6,0-2.8,1.3-2.8,2.8V267.3L144,267.3z M169.5,106.4c-0.5-0.5-0.8-1.3-0.8-2V81.8c0-2.5,1-5,2.9-7
	c1.9-1.9,4.5-2.9,7-2.9h20.2c0-7.7,6.2-13.9,13.8-13.9s13.8,6.2,13.8,13.9h20.2c2.5,0,5,1,7,2.9c1.9,1.9,2.9,4.5,2.9,7v22.5
	c0,0.7-0.3,1.4-0.8,2c-0.6,0.6-1.3,0.8-2,0.8h-82.2C170.8,107.2,170,106.9,169.5,106.4z M206.2,72c0,3.6,2.9,6.5,6.4,6.5
	c3.6,0,6.5-2.9,6.5-6.5s-2.9-6.5-6.5-6.5C209,65.5,206.2,68.4,206.2,72z"/>
</svg>
