<?xml version="1.0" encoding="utf-8"?>
<!-- Generator: Adobe Illustrator 19.1.0, SVG Export Plug-In . SVG Version: 6.00 Build 0)  -->
<svg version="1.1" id="Layer_1" xmlns="http://www.w3.org/2000/svg" xmlns:xlink="http://www.w3.org/1999/xlink" x="0px" y="0px"
	 viewBox="0 0 425.2 425.2" style="enable-background:new 0 0 425.2 425.2;" xml:space="preserve">
<style type="text/css">
	.st0{fill:#0F497F;}
</style>
<path class="st0" d="M99.3,283.8c-5.3,6.4-9,14.4-11.5,25c-17.8,0-36.9,0-64.3,0H8.3c0-0.8,0-1.6,0-2.3c0-0.3,0-0.6,0-0.9
	c0-0.4,0-0.8,0-1.2c0.8-38.3,11.9-43.5,33.2-51.3c-4.4-0.9-8.3-2.8-11.1-6.1c11,0,21.4-7.6,23.4-18.5c1.7-9.5,2.5-19.4,3-28
	c1.2-24.9-12.4-26.6,0.3-60.7c7.7-16.8,22.4-26.6,40.8-26.8c29.7-0.3,43,17.7,45.5,46.1c1.1,14.2,4.2,24.6-2.2,49.8
	c-6.4,25.1,22,27.1,22,27.1s-34.2,9.1-32.8-22.6c7.9-15.6,10.2-44.4-4.7-64.2c-5.2,6.1-9,10-20.1,13.4c2.5-2.6,5-5.3,5.3-7.1
	c0.1-0.7-11.6,9.2-26.5,8.4c4.9-1.4,9.3-2.6,12.7-8.2c-8.7,3.9-11.4,4.1-23.8,4.7c-2.3,11.8-11.5,21-9.6,32.2c3.8,17,17,28,17,28
	c0.2,4.9-2.4,12-4.2,16.4c1.2,2,1.8,4.4,2,6.9c8.5,11.8,21.6,35.6,21.6,35.6s18.6-34,25.9-40.8c0,0,0,0,0.1,0l0,0h0.1v0.1
	c13,7.3,24.1,11.1,33.3,14.5c-7.2,3-13.8,5.5-20.1,7.8C122.3,267.4,108.8,272.4,99.3,283.8z M416.9,304.6c0-0.2,0-0.5,0-0.7
	c0-0.4,0-0.7,0-1c-0.9-47.1-20-36.2-56.8-56.7v-0.1H360l0,0c0,0,0,0-0.1,0c-6.3,5.9-38.4,5.9-44.8,0c0,0,0,0-0.1,0l0,0l0,0v0.1
	c-7.1,3.9-13.5,6.7-19.3,9c5.6,2.2,10.9,4.2,15.9,6c17.1,6.3,30.6,11.3,40,22.6c4.9,5.9,8.5,13.3,10.9,22.8h54.3
	C416.9,305.9,416.9,305.2,416.9,304.6z M311.5,218.6c-0.6-10.7-2.9-21.8,1.3-32.1c0,0,2.6-6.7,2.4-11.1c0,0,17.7,7,15.1,0.6
	c8.2,5.8,23.6,9.8,22.3,6c18.6,4.5,17.7,19.3,18.7,33.4c0,0,3.3-16,4.5-19.8c7.8-26.2-10.8-46.9-36.3-47.3
	c-30.8-0.5-45.1,21.5-34.6,48.9C306.8,202,311.5,218.6,311.5,218.6z M225.2,165.4c0,0.6-0.2,1.5-0.3,2.6h8.5c-0.2-1.1-0.3-2-0.3-2.6
	c-0.2-0.8,0.2-1.5,0.8-2c0.5-0.6,1.2-0.9,2-0.9H271c0.8,0,1.5,0.3,2,0.8c0.5,0.6,0.8,1.4,0.8,2.2c-0.5,4.3-2.2,18.9-7.1,22.5
	c-3.9,2.8-10.6,3.1-13.2,3.1c-2.8,0-9.4-0.3-13.2-2.9c-3.2-2.5-5.1-9.2-6.2-15.1h-9.7c-1.1,5.8-2.9,12.6-6.2,14.9
	c-3.7,2.8-10.5,3.1-13.2,3.1c-2.6,0-9.4-0.3-13.2-2.9c-4.9-3.7-6.6-18.3-7.1-22.6c0-0.8,0.3-1.5,0.8-2c0.5-0.6,1.2-0.9,2-0.9h35.1
	c0.8,0,1.5,0.3,2.2,0.8C225,163.9,225.3,164.7,225.2,165.4z M219.3,167.7h-28.9c0.9,7.2,2.8,14.6,4.6,16c1.4,0.9,4.9,2,9.8,2
	c4.9,0,8.6-1.1,9.9-2C216.6,182.4,218.6,175,219.3,167.7z M238.9,167.7c0.8,7.2,2.8,14.6,4.6,16c1.2,0.9,4.9,2,9.9,2
	c4.9,0,8.5-1.1,9.8-2c1.9-1.4,3.7-8.8,4.6-16H238.9z M362.4,344.5c0-0.6,0-1.2,0-1.8c-1.6-81.4-34.6-62.5-98-97.8c0-0.1,0-0.1,0-0.2
	h-0.2c0,0,0,0-0.1,0.1c0,0-0.1,0-0.1-0.1c-10.9,10.2-24.1,17-38.6,17.2c-14.5-0.2-27.7-7.1-38.6-17.2c0,0-0.1,0-0.1,0.1
	c0,0,0,0-0.1-0.1h-0.2c0,0.1,0,0.1,0,0.2c-63.4,35.3-96.4,16.4-98,97.8c0,0.6,0,1.2,0,1.8c0,0.4,0,0.8,0,1.3c0,1.1,0,2.3,0,3.5h135
	h1.5h0.9h1.5h135c0-1.2,0-2.3,0-3.5C362.5,345.3,362.5,344.9,362.4,344.5z M173.9,191.8c1.7-24.5,0.2-50,32.3-57.7
	c-2.3,6.6-15.4,14-15.4,14c9.7,0.9,39.7-14.3,53.9-24.3c-4.5,11.1-34,25.1-34,25.1c15.9,0.2,60-26.2,60-26.2
	c-0.3,7.7,4.2,19.2,4.2,19.2c7.2,17.7,3.4,36.9,2.3,55.4c0,0,8.2-28.6,11.4-36.8c18.2-47.4-6.6-85.4-59.7-84.5
	c-44,0.6-76,36.3-62.6,81.6C168.2,164,173.9,191.8,173.9,191.8z"/>
</svg>
